<svg id="visual" viewBox="0 0 1920 1080" width="1920" height="1080" xmlns="http://www.w3.org/2000/svg" xmlns:xlink="http://www.w3.org/1999/xlink" version="1.1"><g stroke-width="1" stroke-linejoin="bevel"><path d="M995 501L1098.1 442L976 454Z" fill="#051314" stroke="#051314"></path><path d="M995 501L1143.1 571L1098.1 442Z" fill="#051314" stroke="#051314"></path><path d="M1235.3 387L1120.1 312L1098.1 442Z" fill="#142113" stroke="#142113"></path><path d="M1098.1 442L1120.1 312L976 454Z" fill="#0d1e15" stroke="#0d1e15"></path><path d="M835.9 372L847.9 495L976 454Z" fill="#101f14" stroke="#101f14"></path><path d="M976 454L847.9 495L995 501Z" fill="#05090b" stroke="#05090b"></path><path d="M995 501L1004 695L1143.1 571Z" fill="#081a16" stroke="#081a16"></path><path d="M1274.3 543L1235.3 387L1098.1 442Z" fill="#081a16" stroke="#081a16"></path><path d="M860.9 285L835.9 372L976 454Z" fill="#142113" stroke="#142113"></path><path d="M1120.1 312L945 243L976 454Z" fill="#0d1e15" stroke="#0d1e15"></path><path d="M847.9 495L1004 695L995 501Z" fill="#142113" stroke="#142113"></path><path d="M945 243L860.9 285L976 454Z" fill="#050d0f" stroke="#050d0f"></path><path d="M1260.3 713L1274.3 543L1143.1 571Z" fill="#051314" stroke="#051314"></path><path d="M1143.1 571L1274.3 543L1098.1 442Z" fill="#101f14" stroke="#101f14"></path><path d="M1004 695L1131.1 716L1143.1 571Z" fill="#142113" stroke="#142113"></path><path d="M1235.3 387L1266.3 285L1120.1 312Z" fill="#101f14" stroke="#101f14"></path><path d="M1120.1 312L969 159L945 243Z" fill="#05090b" stroke="#05090b"></path><path d="M1388.4 371L1266.3 285L1235.3 387Z" fill="#0d1e15" stroke="#0d1e15"></path><path d="M1143.1 102L969 159L1120.1 312Z" fill="#061816" stroke="#061816"></path><path d="M945 243L865.9 127L860.9 285Z" fill="#101f14" stroke="#101f14"></path><path d="M639.7 552L800.9 657L847.9 495Z" fill="#0a1c16" stroke="#0a1c16"></path><path d="M847.9 495L800.9 657L1004 695Z" fill="#050d0f" stroke="#050d0f"></path><path d="M1330.4 706L1354.4 546L1274.3 543Z" fill="#051314" stroke="#051314"></path><path d="M1274.3 543L1354.4 546L1235.3 387Z" fill="#142113" stroke="#142113"></path><path d="M1004 695L1104.1 783L1131.1 716Z" fill="#051012" stroke="#051012"></path><path d="M1131.1 716L1260.3 713L1143.1 571Z" fill="#081a16" stroke="#081a16"></path><path d="M992 842L1104.1 783L1004 695Z" fill="#061816" stroke="#061816"></path><path d="M727.7 307L705.7 423L835.9 372Z" fill="#142113" stroke="#142113"></path><path d="M835.9 372L705.7 423L847.9 495Z" fill="#0a1c16" stroke="#0a1c16"></path><path d="M727.7 307L835.9 372L860.9 285Z" fill="#101f14" stroke="#101f14"></path><path d="M1236.3 829L1260.3 713L1131.1 716Z" fill="#050d0f" stroke="#050d0f"></path><path d="M696.7 138L727.7 307L860.9 285Z" fill="#051314" stroke="#051314"></path><path d="M1354.4 546L1388.4 371L1235.3 387Z" fill="#051615" stroke="#051615"></path><path d="M1252.3 155L1120.1 312L1266.3 285Z" fill="#051314" stroke="#051314"></path><path d="M1252.3 155L1143.1 102L1120.1 312Z" fill="#0d1e15" stroke="#0d1e15"></path><path d="M1378.4 283L1252.3 155L1266.3 285Z" fill="#101f14" stroke="#101f14"></path><path d="M989 0L865.9 127L969 159Z" fill="#0a1c16" stroke="#0a1c16"></path><path d="M969 159L865.9 127L945 243Z" fill="#051314" stroke="#051314"></path><path d="M1388.4 371L1378.4 283L1266.3 285Z" fill="#081a16" stroke="#081a16"></path><path d="M1236.3 829L1330.4 706L1260.3 713Z" fill="#051314" stroke="#051314"></path><path d="M1260.3 713L1330.4 706L1274.3 543Z" fill="#081a16" stroke="#081a16"></path><path d="M1354.4 546L1466.6 560L1388.4 371Z" fill="#05090b" stroke="#05090b"></path><path d="M817.9 845L992 842L1004 695Z" fill="#051012" stroke="#051012"></path><path d="M1104.1 783L1236.3 829L1131.1 716Z" fill="#051012" stroke="#051012"></path><path d="M561.6 556L639.7 552L545.6 406Z" fill="#051314" stroke="#051314"></path><path d="M705.7 423L639.7 552L847.9 495Z" fill="#051314" stroke="#051314"></path><path d="M800.9 657L817.9 845L1004 695Z" fill="#051314" stroke="#051314"></path><path d="M1209.3 948L1236.3 829L1104.1 783Z" fill="#051314" stroke="#051314"></path><path d="M1471.6 655L1354.4 546L1330.4 706Z" fill="#101f14" stroke="#101f14"></path><path d="M1471.6 655L1466.6 560L1354.4 546Z" fill="#051012" stroke="#051012"></path><path d="M1388.4 371L1516.6 372L1378.4 283Z" fill="#05090b" stroke="#05090b"></path><path d="M639.7 552L684.7 722L800.9 657Z" fill="#081a16" stroke="#081a16"></path><path d="M817.9 845L994 898L992 842Z" fill="#051314" stroke="#051314"></path><path d="M992 842L1052.1 907L1104.1 783Z" fill="#101f14" stroke="#101f14"></path><path d="M735.7 793L817.9 845L800.9 657Z" fill="#101f14" stroke="#101f14"></path><path d="M994 898L1052.1 907L992 842Z" fill="#0d1e15" stroke="#0d1e15"></path><path d="M684.7 722L735.7 793L800.9 657Z" fill="#061816" stroke="#061816"></path><path d="M1126.1 0L989 0L1143.1 102Z" fill="#061816" stroke="#061816"></path><path d="M1143.1 102L989 0L969 159Z" fill="#05090b" stroke="#05090b"></path><path d="M1206.3 0L1143.1 102L1252.3 155Z" fill="#101f14" stroke="#101f14"></path><path d="M1206.3 0L1126.1 0L1143.1 102Z" fill="#142113" stroke="#142113"></path><path d="M830.9 0L696.7 138L865.9 127Z" fill="#081a16" stroke="#081a16"></path><path d="M865.9 127L696.7 138L860.9 285Z" fill="#061816" stroke="#061816"></path><path d="M727.7 307L585.6 288L705.7 423Z" fill="#051615" stroke="#051615"></path><path d="M1406.4 769L1471.6 655L1330.4 706Z" fill="#0d1e15" stroke="#0d1e15"></path><path d="M696.7 138L585.6 288L727.7 307Z" fill="#051314" stroke="#051314"></path><path d="M1398.4 903L1406.4 769L1236.3 829Z" fill="#0d1e15" stroke="#0d1e15"></path><path d="M1236.3 829L1406.4 769L1330.4 706Z" fill="#051314" stroke="#051314"></path><path d="M1604.7 575L1516.6 372L1466.6 560Z" fill="#061816" stroke="#061816"></path><path d="M1466.6 560L1516.6 372L1388.4 371Z" fill="#081a16" stroke="#081a16"></path><path d="M1375.4 0L1206.3 0L1252.3 155Z" fill="#101f14" stroke="#101f14"></path><path d="M1385.4 110L1252.3 155L1378.4 283Z" fill="#051012" stroke="#051012"></path><path d="M545.6 406L639.7 552L705.7 423Z" fill="#051314" stroke="#051314"></path><path d="M639.7 552L524.6 715L684.7 722Z" fill="#0d1e15" stroke="#0d1e15"></path><path d="M656.7 976L797.9 941L735.7 793Z" fill="#142113" stroke="#142113"></path><path d="M1492.6 245L1385.4 110L1378.4 283Z" fill="#05090b" stroke="#05090b"></path><path d="M585.6 288L545.6 406L705.7 423Z" fill="#0d1e15" stroke="#0d1e15"></path><path d="M989 0L830.9 0L865.9 127Z" fill="#081a16" stroke="#081a16"></path><path d="M1516.6 372L1492.6 245L1378.4 283Z" fill="#0d1e15" stroke="#0d1e15"></path><path d="M1129.1 1080L1209.3 948L1052.1 907Z" fill="#0d1e15" stroke="#0d1e15"></path><path d="M1052.1 907L1209.3 948L1104.1 783Z" fill="#081a16" stroke="#081a16"></path><path d="M817.9 845L797.9 941L994 898Z" fill="#0d1e15" stroke="#0d1e15"></path><path d="M994 898L997 1080L1052.1 907Z" fill="#051615" stroke="#051615"></path><path d="M735.7 793L797.9 941L817.9 845Z" fill="#0a1c16" stroke="#0a1c16"></path><path d="M549.6 849L735.7 793L684.7 722Z" fill="#0d1e15" stroke="#0d1e15"></path><path d="M1547.6 0L1375.4 0L1385.4 110Z" fill="#05090b" stroke="#05090b"></path><path d="M1385.4 110L1375.4 0L1252.3 155Z" fill="#051012" stroke="#051012"></path><path d="M830.9 0L698.7 0L696.7 138Z" fill="#081a16" stroke="#081a16"></path><path d="M501.6 118L443.4 292L585.6 288Z" fill="#051615" stroke="#051615"></path><path d="M1209.3 948L1398.4 903L1236.3 829Z" fill="#142113" stroke="#142113"></path><path d="M1647.7 630L1604.7 575L1471.6 655Z" fill="#050d0f" stroke="#050d0f"></path><path d="M449.4 639L524.6 715L561.6 556Z" fill="#142113" stroke="#142113"></path><path d="M561.6 556L524.6 715L639.7 552Z" fill="#081a16" stroke="#081a16"></path><path d="M1524.6 781L1471.6 655L1406.4 769Z" fill="#081a16" stroke="#081a16"></path><path d="M1471.6 655L1604.7 575L1466.6 560Z" fill="#0a1c16" stroke="#0a1c16"></path><path d="M1516.6 372L1610.7 310L1492.6 245Z" fill="#0a1c16" stroke="#0a1c16"></path><path d="M1398.4 903L1524.6 781L1406.4 769Z" fill="#05090b" stroke="#05090b"></path><path d="M1640.7 378L1610.7 310L1516.6 372Z" fill="#0d1e15" stroke="#0d1e15"></path><path d="M1492.6 245L1549.6 116L1385.4 110Z" fill="#081a16" stroke="#081a16"></path><path d="M1604.7 575L1640.7 378L1516.6 372Z" fill="#142113" stroke="#142113"></path><path d="M1610.7 310L1549.6 116L1492.6 245Z" fill="#081a16" stroke="#081a16"></path><path d="M1594.7 92L1549.6 116L1610.7 310Z" fill="#050d0f" stroke="#050d0f"></path><path d="M377.4 407L423.4 496L545.6 406Z" fill="#051314" stroke="#051314"></path><path d="M545.6 406L423.4 496L561.6 556Z" fill="#0a1c16" stroke="#0a1c16"></path><path d="M443.4 292L545.6 406L585.6 288Z" fill="#051012" stroke="#051012"></path><path d="M423.4 496L449.4 639L561.6 556Z" fill="#081a16" stroke="#081a16"></path><path d="M501.6 118L585.6 288L696.7 138Z" fill="#142113" stroke="#142113"></path><path d="M870.9 1080L997 1080L994 898Z" fill="#061816" stroke="#061816"></path><path d="M1209.3 948L1348.4 1080L1398.4 903Z" fill="#05090b" stroke="#05090b"></path><path d="M457.4 761L549.6 849L524.6 715Z" fill="#0a1c16" stroke="#0a1c16"></path><path d="M524.6 715L549.6 849L684.7 722Z" fill="#061816" stroke="#061816"></path><path d="M797.9 941L870.9 1080L994 898Z" fill="#051314" stroke="#051314"></path><path d="M997 1080L1129.1 1080L1052.1 907Z" fill="#051615" stroke="#051615"></path><path d="M1524.6 781L1647.7 630L1471.6 655Z" fill="#050d0f" stroke="#050d0f"></path><path d="M1604.7 575L1738.9 413L1640.7 378Z" fill="#142113" stroke="#142113"></path><path d="M512.6 0L501.6 118L696.7 138Z" fill="#051615" stroke="#051615"></path><path d="M549.6 849L656.7 976L735.7 793Z" fill="#0d1e15" stroke="#0d1e15"></path><path d="M698.7 1080L870.9 1080L797.9 941Z" fill="#0d1e15" stroke="#0d1e15"></path><path d="M542.6 1080L698.7 1080L656.7 976Z" fill="#051012" stroke="#051012"></path><path d="M449.4 639L457.4 761L524.6 715Z" fill="#081a16" stroke="#081a16"></path><path d="M302.3 708L457.4 761L449.4 639Z" fill="#081a16" stroke="#081a16"></path><path d="M1129.1 1080L1256.3 1080L1209.3 948Z" fill="#0d1e15" stroke="#0d1e15"></path><path d="M1398.4 903L1512.6 929L1524.6 781Z" fill="#101f14" stroke="#101f14"></path><path d="M318.3 300L377.4 407L443.4 292Z" fill="#05090b" stroke="#05090b"></path><path d="M443.4 292L377.4 407L545.6 406Z" fill="#05090b" stroke="#05090b"></path><path d="M233.3 587L302.3 708L449.4 639Z" fill="#051012" stroke="#051012"></path><path d="M1749.9 141L1594.7 92L1610.7 310Z" fill="#051012" stroke="#051012"></path><path d="M1549.6 116L1547.6 0L1385.4 110Z" fill="#051615" stroke="#051615"></path><path d="M1499.6 1080L1512.6 929L1398.4 903Z" fill="#051314" stroke="#051314"></path><path d="M1524.6 781L1647.7 830L1647.7 630Z" fill="#142113" stroke="#142113"></path><path d="M1594.7 92L1547.6 0L1549.6 116Z" fill="#0d1e15" stroke="#0d1e15"></path><path d="M698.7 0L512.6 0L696.7 138Z" fill="#0a1c16" stroke="#0a1c16"></path><path d="M501.6 118L387.4 126L443.4 292Z" fill="#051615" stroke="#051615"></path><path d="M1256.3 1080L1348.4 1080L1209.3 948Z" fill="#0d1e15" stroke="#0d1e15"></path><path d="M1736.9 584L1738.9 413L1604.7 575Z" fill="#142113" stroke="#142113"></path><path d="M1640.7 378L1810.9 292L1610.7 310Z" fill="#0d1e15" stroke="#0d1e15"></path><path d="M507.6 937L656.7 976L549.6 849Z" fill="#051615" stroke="#051615"></path><path d="M656.7 976L698.7 1080L797.9 941Z" fill="#061816" stroke="#061816"></path><path d="M1782.9 717L1736.9 584L1647.7 630Z" fill="#081a16" stroke="#081a16"></path><path d="M1647.7 630L1736.9 584L1604.7 575Z" fill="#050d0f" stroke="#050d0f"></path><path d="M1646.7 922L1647.7 830L1512.6 929Z" fill="#081a16" stroke="#081a16"></path><path d="M1512.6 929L1647.7 830L1524.6 781Z" fill="#0a1c16" stroke="#0a1c16"></path><path d="M457.4 761L507.6 937L549.6 849Z" fill="#051314" stroke="#051314"></path><path d="M428.4 0L387.4 126L501.6 118Z" fill="#0a1c16" stroke="#0a1c16"></path><path d="M1749.9 141L1613.7 0L1594.7 92Z" fill="#0d1e15" stroke="#0d1e15"></path><path d="M1594.7 92L1613.7 0L1547.6 0Z" fill="#0a1c16" stroke="#0a1c16"></path><path d="M299.3 173L318.3 300L443.4 292Z" fill="#050d0f" stroke="#050d0f"></path><path d="M233.3 587L449.4 639L423.4 496Z" fill="#142113" stroke="#142113"></path><path d="M457.4 761L397.4 957L507.6 937Z" fill="#051012" stroke="#051012"></path><path d="M512.6 0L428.4 0L501.6 118Z" fill="#0a1c16" stroke="#0a1c16"></path><path d="M387.4 126L299.3 173L443.4 292Z" fill="#051314" stroke="#051314"></path><path d="M1637.7 1080L1646.7 922L1512.6 929Z" fill="#142113" stroke="#142113"></path><path d="M1647.7 830L1782.9 717L1647.7 630Z" fill="#0a1c16" stroke="#0a1c16"></path><path d="M1348.4 1080L1499.6 1080L1398.4 903Z" fill="#051314" stroke="#051314"></path><path d="M224.3 444L423.4 496L377.4 407Z" fill="#05090b" stroke="#05090b"></path><path d="M1810.9 292L1640.7 378L1738.9 413Z" fill="#061816" stroke="#061816"></path><path d="M1810.9 292L1749.9 141L1610.7 310Z" fill="#05090b" stroke="#05090b"></path><path d="M1823.9 836L1782.9 717L1647.7 830Z" fill="#051615" stroke="#051615"></path><path d="M1920 389L1810.9 292L1738.9 413Z" fill="#051012" stroke="#051012"></path><path d="M1920 389L1738.9 413L1920 568Z" fill="#050d0f" stroke="#050d0f"></path><path d="M250.3 0L299.3 173L387.4 126Z" fill="#0a1c16" stroke="#0a1c16"></path><path d="M318.3 300L224.3 444L377.4 407Z" fill="#061816" stroke="#061816"></path><path d="M447.4 1080L542.6 1080L507.6 937Z" fill="#142113" stroke="#142113"></path><path d="M507.6 937L542.6 1080L656.7 976Z" fill="#0d1e15" stroke="#0d1e15"></path><path d="M307.3 853L397.4 957L457.4 761Z" fill="#061816" stroke="#061816"></path><path d="M152.1 374L224.3 444L318.3 300Z" fill="#051314" stroke="#051314"></path><path d="M224.3 444L233.3 587L423.4 496Z" fill="#0a1c16" stroke="#0a1c16"></path><path d="M302.3 708L307.3 853L457.4 761Z" fill="#05090b" stroke="#05090b"></path><path d="M98.1 792L307.3 853L302.3 708Z" fill="#0d1e15" stroke="#0d1e15"></path><path d="M323.3 984L447.4 1080L397.4 957Z" fill="#051012" stroke="#051012"></path><path d="M397.4 957L447.4 1080L507.6 937Z" fill="#051615" stroke="#051615"></path><path d="M1786.9 1080L1768.9 915L1646.7 922Z" fill="#061816" stroke="#061816"></path><path d="M1646.7 922L1768.9 915L1647.7 830Z" fill="#101f14" stroke="#101f14"></path><path d="M1499.6 1080L1637.7 1080L1512.6 929Z" fill="#0d1e15" stroke="#0d1e15"></path><path d="M1768.9 915L1823.9 836L1647.7 830Z" fill="#081a16" stroke="#081a16"></path><path d="M1920 568L1738.9 413L1736.9 584Z" fill="#051314" stroke="#051314"></path><path d="M299.3 173L178.1 269L318.3 300Z" fill="#142113" stroke="#142113"></path><path d="M224.3 444L118.1 547L233.3 587Z" fill="#05090b" stroke="#05090b"></path><path d="M182.1 168L178.1 269L299.3 173Z" fill="#081a16" stroke="#081a16"></path><path d="M1920 568L1736.9 584L1782.9 717Z" fill="#051012" stroke="#051012"></path><path d="M1810.9 292L1920 177L1749.9 141Z" fill="#051012" stroke="#051012"></path><path d="M259.3 1080L323.3 984L156.1 945Z" fill="#142113" stroke="#142113"></path><path d="M307.3 853L323.3 984L397.4 957Z" fill="#051012" stroke="#051012"></path><path d="M1920 709L1920 568L1782.9 717Z" fill="#051615" stroke="#051615"></path><path d="M178.1 269L152.1 374L318.3 300Z" fill="#0a1c16" stroke="#0a1c16"></path><path d="M233.3 587L93.1 642L302.3 708Z" fill="#051012" stroke="#051012"></path><path d="M250.3 0L182.1 168L299.3 173Z" fill="#081a16" stroke="#081a16"></path><path d="M0 367L0 504L152.1 374Z" fill="#051615" stroke="#051615"></path><path d="M1920 389L1920 259L1810.9 292Z" fill="#0a1c16" stroke="#0a1c16"></path><path d="M1749.9 141L1825.9 0L1613.7 0Z" fill="#0a1c16" stroke="#0a1c16"></path><path d="M428.4 0L250.3 0L387.4 126Z" fill="#051615" stroke="#051615"></path><path d="M1920 177L1825.9 0L1749.9 141Z" fill="#081a16" stroke="#081a16"></path><path d="M1920 796L1782.9 717L1823.9 836Z" fill="#051615" stroke="#051615"></path><path d="M1920 796L1920 709L1782.9 717Z" fill="#05090b" stroke="#05090b"></path><path d="M93.1 642L118.1 547L0 504Z" fill="#142113" stroke="#142113"></path><path d="M152.1 374L118.1 547L224.3 444Z" fill="#0a1c16" stroke="#0a1c16"></path><path d="M1920 259L1920 177L1810.9 292Z" fill="#081a16" stroke="#081a16"></path><path d="M1920 928L1920 796L1823.9 836Z" fill="#0d1e15" stroke="#0d1e15"></path><path d="M1920 928L1823.9 836L1768.9 915Z" fill="#0a1c16" stroke="#0a1c16"></path><path d="M0 504L118.1 547L152.1 374Z" fill="#051314" stroke="#051314"></path><path d="M118.1 547L93.1 642L233.3 587Z" fill="#05090b" stroke="#05090b"></path><path d="M1637.7 1080L1786.9 1080L1646.7 922Z" fill="#061816" stroke="#061816"></path><path d="M1920 177L1920 0L1825.9 0Z" fill="#0a1c16" stroke="#0a1c16"></path><path d="M156.1 945L323.3 984L307.3 853Z" fill="#081a16" stroke="#081a16"></path><path d="M323.3 984L259.3 1080L447.4 1080Z" fill="#051012" stroke="#051012"></path><path d="M93.1 642L98.1 792L302.3 708Z" fill="#081a16" stroke="#081a16"></path><path d="M1786.9 1080L1920 928L1768.9 915Z" fill="#142113" stroke="#142113"></path><path d="M98.1 792L156.1 945L307.3 853Z" fill="#0a1c16" stroke="#0a1c16"></path><path d="M250.3 0L128.1 0L182.1 168Z" fill="#0a1c16" stroke="#0a1c16"></path><path d="M0 367L152.1 374L0 250Z" fill="#0d1e15" stroke="#0d1e15"></path><path d="M93.1 642L0 652L98.1 792Z" fill="#050d0f" stroke="#050d0f"></path><path d="M152.1 374L178.1 269L0 250Z" fill="#051615" stroke="#051615"></path><path d="M0 250L178.1 269L182.1 168Z" fill="#142113" stroke="#142113"></path><path d="M0 504L0 652L93.1 642Z" fill="#050d0f" stroke="#050d0f"></path><path d="M98.1 792L0 856L156.1 945Z" fill="#061816" stroke="#061816"></path><path d="M0 96L0 250L182.1 168Z" fill="#050d0f" stroke="#050d0f"></path><path d="M1786.9 1080L1920 1080L1920 928Z" fill="#142113" stroke="#142113"></path><path d="M128.1 0L0 96L182.1 168Z" fill="#081a16" stroke="#081a16"></path><path d="M0 652L0 856L98.1 792Z" fill="#061816" stroke="#061816"></path><path d="M156.1 945L94.1 1080L259.3 1080Z" fill="#051012" stroke="#051012"></path><path d="M0 932L94.1 1080L156.1 945Z" fill="#142113" stroke="#142113"></path><path d="M128.1 0L0 0L0 96Z" fill="#051314" stroke="#051314"></path><path d="M0 856L0 932L156.1 945Z" fill="#0d1e15" stroke="#0d1e15"></path><path d="M0 932L0 1080L94.1 1080Z" fill="#061816" stroke="#061816"></path></g></svg>